solid outlet1
 facet normal 0.000000 -1.000000 0.000000
  outer loop
   vertex -0.312835 0.510000 0.441365
   vertex -0.392675 0.510000 0.673055
   vertex -0.401954 0.510000 0.667039
  endloop
 endfacet
 facet normal 0.000000 -0.000064 0.000000
  outer loop
   vertex -0.205875 0.510000 0.584547
   vertex -0.215261 0.510000 0.616276
   vertex -0.220216 0.510000 0.626162
  endloop
 endfacet
 facet normal 0.000000 -1.000000 0.000000
  outer loop
   vertex -0.205875 0.510000 0.584547
   vertex -0.240018 0.510000 0.652671
   vertex -0.248093 0.510000 0.660226
  endloop
 endfacet
 facet normal 0.000000 -1.000000 0.000000
  outer loop
   vertex -0.312835 0.510000 0.441365
   vertex -0.401954 0.510000 0.667039
   vertex -0.410665 0.510000 0.660226
  endloop
 endfacet
 facet normal 0.000000 -1.000000 0.000000
  outer loop
   vertex -0.275856 0.510000 0.678227
   vertex -0.252373 0.510000 0.466802
   vertex -0.243972 0.510000 0.473993
  endloop
 endfacet
 facet normal 0.000000 -1.000000 0.000000
  outer loop
   vertex -0.256803 0.510000 0.667039
   vertex -0.205143 0.510000 0.551466
   vertex -0.204409 0.510000 0.562500
  endloop
 endfacet
 facet normal 0.000000 -0.000032 0.000000
  outer loop
   vertex -0.215261 0.510000 0.616276
   vertex -0.205875 0.510000 0.584547
   vertex -0.211199 0.510000 0.605991
  endloop
 endfacet
 facet normal 0.000000 -1.000000 0.000000
  outer loop
   vertex -0.240018 0.510000 0.652671
   vertex -0.205875 0.510000 0.584547
   vertex -0.232643 0.510000 0.644431
  endloop
 endfacet
 facet normal 0.000000 -1.000000 0.000000
  outer loop
   vertex -0.312835 0.510000 0.441365
   vertex -0.410665 0.510000 0.660226
   vertex -0.418739 0.510000 0.652671
  endloop
 endfacet
 facet normal 0.000000 -1.000000 0.000000
  outer loop
   vertex -0.252373 0.510000 0.466802
   vertex -0.275856 0.510000 0.678227
   vertex -0.261376 0.510000 0.460382
  endloop
 endfacet
 facet normal 0.000000 -1.000000 0.000000
  outer loop
   vertex -0.275856 0.510000 0.678227
   vertex -0.236239 0.510000 0.481899
   vertex -0.229236 0.510000 0.490456
  endloop
 endfacet
 facet normal 0.000000 -1.000000 0.000000
  outer loop
   vertex -0.256803 0.510000 0.667039
   vertex -0.204409 0.510000 0.562500
   vertex -0.204654 0.510000 0.573556
  endloop
 endfacet
 facet normal 0.000000 -1.000000 0.000000
  outer loop
   vertex -0.205875 0.510000 0.584547
   vertex -0.220216 0.510000 0.626162
   vertex -0.226025 0.510000 0.635572
  endloop
 endfacet
 facet normal 0.000000 -1.000000 0.000000
  outer loop
   vertex -0.205875 0.510000 0.584547
   vertex -0.248093 0.510000 0.660226
   vertex -0.256803 0.510000 0.667039
  endloop
 endfacet
 facet normal 0.000000 -1.000000 0.000000
  outer loop
   vertex -0.312835 0.510000 0.441365
   vertex -0.418739 0.510000 0.652671
   vertex -0.426115 0.510000 0.644431
  endloop
 endfacet
 facet normal 0.000000 -1.000000 0.000000
  outer loop
   vertex -0.312835 0.510000 0.441365
   vertex -0.432733 0.510000 0.635572
   vertex -0.438542 0.510000 0.626162
  endloop
 endfacet
 facet normal 0.000000 -0.000064 0.000000
  outer loop
   vertex -0.367479 0.510000 0.446214
   vertex -0.334908 0.510000 0.440388
   vertex -0.323850 0.510000 0.440388
  endloop
 endfacet
 facet normal 0.000000 -1.000000 0.000000
  outer loop
   vertex -0.275856 0.510000 0.678227
   vertex -0.301949 0.510000 0.443312
   vertex -0.291278 0.510000 0.446214
  endloop
 endfacet
 facet normal 0.000000 -1.000000 0.000000
  outer loop
   vertex -0.275856 0.510000 0.678227
   vertex -0.280905 0.510000 0.450047
   vertex -0.270912 0.510000 0.454782
  endloop
 endfacet
 facet normal 0.000000 -1.000000 0.000000
  outer loop
   vertex -0.236239 0.510000 0.481899
   vertex -0.275856 0.510000 0.678227
   vertex -0.243972 0.510000 0.473993
  endloop
 endfacet
 facet normal 0.000000 -1.000000 0.000000
  outer loop
   vertex -0.256803 0.510000 0.667039
   vertex -0.204654 0.510000 0.573556
   vertex -0.205875 0.510000 0.584547
  endloop
 endfacet
 facet normal 0.000000 -1.000000 0.000000
  outer loop
   vertex -0.232643 0.510000 0.644431
   vertex -0.205875 0.510000 0.584547
   vertex -0.226025 0.510000 0.635572
  endloop
 endfacet
 facet normal 0.000000 -1.000000 0.000000
  outer loop
   vertex -0.432733 0.510000 0.635572
   vertex -0.312835 0.510000 0.441365
   vertex -0.426115 0.510000 0.644431
  endloop
 endfacet
 facet normal 0.000000 -1.000000 0.000000
  outer loop
   vertex -0.312835 0.510000 0.441365
   vertex -0.443497 0.510000 0.616276
   vertex -0.447559 0.510000 0.605991
  endloop
 endfacet
 facet normal 0.000000 -1.000000 0.000000
  outer loop
   vertex -0.312835 0.510000 0.441365
   vertex -0.445641 0.510000 0.519353
   vertex -0.441129 0.510000 0.509257
  endloop
 endfacet
 facet normal 0.000000 -1.000000 0.000000
  outer loop
   vertex -0.312835 0.510000 0.441365
   vertex -0.429522 0.510000 0.490456
   vertex -0.422518 0.510000 0.481899
  endloop
 endfacet
 facet normal 0.000000 -1.000000 0.000000
  outer loop
   vertex -0.312835 0.510000 0.441365
   vertex -0.377852 0.510000 0.450047
   vertex -0.367479 0.510000 0.446214
  endloop
 endfacet
 facet normal 0.000000 -0.000032 0.000000
  outer loop
   vertex -0.334908 0.510000 0.440388
   vertex -0.367479 0.510000 0.446214
   vertex -0.345923 0.510000 0.441365
  endloop
 endfacet
 facet normal 0.000000 -1.000000 0.000000
  outer loop
   vertex -0.280905 0.510000 0.450047
   vertex -0.275856 0.510000 0.678227
   vertex -0.291278 0.510000 0.446214
  endloop
 endfacet
 facet normal 0.000000 -1.000000 0.000000
  outer loop
   vertex -0.275856 0.510000 0.678227
   vertex -0.229236 0.510000 0.490456
   vertex -0.223016 0.510000 0.499600
  endloop
 endfacet
 facet normal 0.000000 -0.000011 0.000000
  outer loop
   vertex -0.211199 0.510000 0.605991
   vertex -0.205875 0.510000 0.584547
   vertex -0.208062 0.510000 0.595387
  endloop
 endfacet
 facet normal 0.000000 -1.000000 0.000000
  outer loop
   vertex -0.206849 0.510000 0.540540
   vertex -0.266082 0.510000 0.673055
   vertex -0.275856 0.510000 0.678227
  endloop
 endfacet
 facet normal 0.000000 -1.000000 0.000000
  outer loop
   vertex -0.312835 0.510000 0.441365
   vertex -0.372708 0.510000 0.682516
   vertex -0.382901 0.510000 0.678227
  endloop
 endfacet
 facet normal 0.000000 -1.000000 0.000000
  outer loop
   vertex -0.443497 0.510000 0.616276
   vertex -0.312835 0.510000 0.441365
   vertex -0.438542 0.510000 0.626162
  endloop
 endfacet
 facet normal 0.000000 -1.000000 0.000000
  outer loop
   vertex -0.312835 0.510000 0.441365
   vertex -0.454104 0.510000 0.573556
   vertex -0.454348 0.510000 0.562500
  endloop
 endfacet
 facet normal 0.000000 -1.000000 0.000000
  outer loop
   vertex -0.312835 0.510000 0.441365
   vertex -0.453615 0.510000 0.551466
   vertex -0.451909 0.510000 0.540540
  endloop
 endfacet
 facet normal 0.000000 -1.000000 0.000000
  outer loop
   vertex -0.445641 0.510000 0.519353
   vertex -0.312835 0.510000 0.441365
   vertex -0.449244 0.510000 0.529808
  endloop
 endfacet
 facet normal 0.000000 -1.000000 0.000000
  outer loop
   vertex -0.312835 0.510000 0.441365
   vertex -0.422518 0.510000 0.481899
   vertex -0.414786 0.510000 0.473993
  endloop
 endfacet
 facet normal 0.000000 -1.000000 0.000000
  outer loop
   vertex -0.312835 0.510000 0.441365
   vertex -0.406385 0.510000 0.466802
   vertex -0.397381 0.510000 0.460382
  endloop
 endfacet
 facet normal 0.000000 -1.000000 0.000000
  outer loop
   vertex -0.377852 0.510000 0.450047
   vertex -0.312835 0.510000 0.441365
   vertex -0.387846 0.510000 0.454782
  endloop
 endfacet
 facet normal 0.000000 -1.000000 0.000000
  outer loop
   vertex -0.367479 0.510000 0.446214
   vertex -0.323850 0.510000 0.440388
   vertex -0.312835 0.510000 0.441365
  endloop
 endfacet
 facet normal 0.000000 -1.000000 0.000000
  outer loop
   vertex -0.261376 0.510000 0.460382
   vertex -0.275856 0.510000 0.678227
   vertex -0.270912 0.510000 0.454782
  endloop
 endfacet
 facet normal 0.000000 -1.000000 0.000000
  outer loop
   vertex -0.275856 0.510000 0.678227
   vertex -0.217629 0.510000 0.509257
   vertex -0.213116 0.510000 0.519353
  endloop
 endfacet
 facet normal 0.000000 -1.000000 0.000000
  outer loop
   vertex -0.275856 0.510000 0.678227
   vertex -0.209513 0.510000 0.529808
   vertex -0.206849 0.510000 0.540540
  endloop
 endfacet
 facet normal 0.000000 -1.000000 0.000000
  outer loop
   vertex -0.266082 0.510000 0.673055
   vertex -0.206849 0.510000 0.540540
   vertex -0.256803 0.510000 0.667039
  endloop
 endfacet
 facet normal 0.000000 -1.000000 0.000000
  outer loop
   vertex -0.312835 0.510000 0.441365
   vertex -0.307370 0.510000 0.688313
   vertex -0.318331 0.510000 0.689776
  endloop
 endfacet
 facet normal 0.000000 -1.000000 0.000000
  outer loop
   vertex -0.312835 0.510000 0.441365
   vertex -0.329379 0.510000 0.690266
   vertex -0.340426 0.510000 0.689776
  endloop
 endfacet
 facet normal 0.000000 -1.000000 0.000000
  outer loop
   vertex -0.312835 0.510000 0.441365
   vertex -0.351387 0.510000 0.688313
   vertex -0.362176 0.510000 0.685886
  endloop
 endfacet
 facet normal 0.000000 -1.000000 0.000000
  outer loop
   vertex -0.392675 0.510000 0.673055
   vertex -0.312835 0.510000 0.441365
   vertex -0.382901 0.510000 0.678227
  endloop
 endfacet
 facet normal 0.000000 -1.000000 0.000000
  outer loop
   vertex -0.453615 0.510000 0.551466
   vertex -0.312835 0.510000 0.441365
   vertex -0.454348 0.510000 0.562500
  endloop
 endfacet
 facet normal 0.000000 -1.000000 0.000000
  outer loop
   vertex -0.312835 0.510000 0.441365
   vertex -0.441129 0.510000 0.509257
   vertex -0.435741 0.510000 0.499600
  endloop
 endfacet
 facet normal 0.000000 -1.000000 0.000000
  outer loop
   vertex -0.406385 0.510000 0.466802
   vertex -0.312835 0.510000 0.441365
   vertex -0.414786 0.510000 0.473993
  endloop
 endfacet
 facet normal 0.000000 -0.000011 0.000000
  outer loop
   vertex -0.345923 0.510000 0.441365
   vertex -0.367479 0.510000 0.446214
   vertex -0.356809 0.510000 0.443312
  endloop
 endfacet
 facet normal 0.000000 -1.000000 0.000000
  outer loop
   vertex -0.217629 0.510000 0.509257
   vertex -0.275856 0.510000 0.678227
   vertex -0.223016 0.510000 0.499600
  endloop
 endfacet
 facet normal 0.000000 -1.000000 0.000000
  outer loop
   vertex -0.205143 0.510000 0.551466
   vertex -0.256803 0.510000 0.667039
   vertex -0.206849 0.510000 0.540540
  endloop
 endfacet
 facet normal 0.000000 -1.000000 0.000000
  outer loop
   vertex -0.312835 0.510000 0.441365
   vertex -0.286049 0.510000 0.682516
   vertex -0.296581 0.510000 0.685886
  endloop
 endfacet
 facet normal 0.000000 -1.000000 0.000000
  outer loop
   vertex -0.329379 0.510000 0.690266
   vertex -0.312835 0.510000 0.441365
   vertex -0.318331 0.510000 0.689776
  endloop
 endfacet
 facet normal 0.000000 -1.000000 0.000000
  outer loop
   vertex -0.372708 0.510000 0.682516
   vertex -0.312835 0.510000 0.441365
   vertex -0.362176 0.510000 0.685886
  endloop
 endfacet
 facet normal 0.000000 -1.000000 0.000000
  outer loop
   vertex -0.312835 0.510000 0.441365
   vertex -0.450695 0.510000 0.595387
   vertex -0.452883 0.510000 0.584547
  endloop
 endfacet
 facet normal 0.000000 -1.000000 0.000000
  outer loop
   vertex -0.449244 0.510000 0.529808
   vertex -0.312835 0.510000 0.441365
   vertex -0.451909 0.510000 0.540540
  endloop
 endfacet
 facet normal 0.000000 -1.000000 0.000000
  outer loop
   vertex -0.387846 0.510000 0.454782
   vertex -0.312835 0.510000 0.441365
   vertex -0.397381 0.510000 0.460382
  endloop
 endfacet
 facet normal 0.000000 -1.000000 0.000000
  outer loop
   vertex -0.209513 0.510000 0.529808
   vertex -0.275856 0.510000 0.678227
   vertex -0.213116 0.510000 0.519353
  endloop
 endfacet
 facet normal 0.000000 -1.000000 0.000000
  outer loop
   vertex -0.307370 0.510000 0.688313
   vertex -0.312835 0.510000 0.441365
   vertex -0.296581 0.510000 0.685886
  endloop
 endfacet
 facet normal 0.000000 -1.000000 0.000000
  outer loop
   vertex -0.450695 0.510000 0.595387
   vertex -0.312835 0.510000 0.441365
   vertex -0.447559 0.510000 0.605991
  endloop
 endfacet
 facet normal 0.000000 -1.000000 0.000000
  outer loop
   vertex -0.429522 0.510000 0.490456
   vertex -0.312835 0.510000 0.441365
   vertex -0.435741 0.510000 0.499600
  endloop
 endfacet
 facet normal 0.000000 -1.000000 0.000000
  outer loop
   vertex -0.286049 0.510000 0.682516
   vertex -0.312835 0.510000 0.441365
   vertex -0.275856 0.510000 0.678227
  endloop
 endfacet
 facet normal 0.000000 -1.000000 0.000000
  outer loop
   vertex -0.454104 0.510000 0.573556
   vertex -0.312835 0.510000 0.441365
   vertex -0.452883 0.510000 0.584547
  endloop
 endfacet
 facet normal 0.000000 -1.000000 0.000000
  outer loop
   vertex -0.351387 0.510000 0.688313
   vertex -0.312835 0.510000 0.441365
   vertex -0.340426 0.510000 0.689776
  endloop
 endfacet
 facet normal 0.000000 -1.000000 0.000000
  outer loop
   vertex -0.301949 0.510000 0.443312
   vertex -0.275856 0.510000 0.678227
   vertex -0.312835 0.510000 0.441365
  endloop
 endfacet
endsolid outlet1
