solid inlet1
 facet normal 0.000000 -1.000000 0.000000
  outer loop
   vertex 0.308873 0.510000 0.764410
   vertex 0.313599 0.510000 0.721455
   vertex 0.314797 0.510000 0.732338
  endloop
 endfacet
 facet normal 0.000000 -0.000017 0.000000
  outer loop
   vertex 0.308873 0.510000 0.764410
   vertex 0.314397 0.510000 0.743280
   vertex 0.312408 0.510000 0.754047
  endloop
 endfacet
 facet normal 0.000000 -1.000000 0.000000
  outer loop
   vertex 0.239847 0.510000 0.810077
   vertex 0.185854 0.510000 0.683022
   vertex 0.194009 0.510000 0.675715
  endloop
 endfacet
 facet normal 0.000000 -1.000000 0.000000
  outer loop
   vertex 0.239847 0.510000 0.810077
   vertex 0.203141 0.510000 0.669674
   vertex 0.213055 0.510000 0.665026
  endloop
 endfacet
 facet normal 0.000000 -1.000000 0.000000
  outer loop
   vertex 0.297495 0.510000 0.783053
   vertex 0.245322 0.510000 0.660278
   vertex 0.256154 0.510000 0.661872
  endloop
 endfacet
 facet normal 0.000000 -1.000000 0.000000
  outer loop
   vertex 0.297495 0.510000 0.783053
   vertex 0.293840 0.510000 0.683022
   vertex 0.300844 0.510000 0.691438
  endloop
 endfacet
 facet normal 0.000000 -1.000000 0.000000
  outer loop
   vertex 0.297495 0.510000 0.783053
   vertex 0.306548 0.510000 0.700784
   vertex 0.310830 0.510000 0.710861
  endloop
 endfacet
 facet normal 0.000000 -0.000052 0.000000
  outer loop
   vertex 0.314397 0.510000 0.743280
   vertex 0.308873 0.510000 0.764410
   vertex 0.314797 0.510000 0.732338
  endloop
 endfacet
 facet normal 0.000000 -1.000000 0.000000
  outer loop
   vertex 0.310830 0.510000 0.710861
   vertex 0.303866 0.510000 0.774148
   vertex 0.297495 0.510000 0.783053
  endloop
 endfacet
 facet normal 0.000000 -1.000000 0.000000
  outer loop
   vertex 0.234372 0.510000 0.660278
   vertex 0.271681 0.510000 0.802986
   vertex 0.261454 0.510000 0.806898
  endloop
 endfacet
 facet normal 0.000000 -0.000017 0.000000
  outer loop
   vertex 0.182198 0.510000 0.783053
   vertex 0.198464 0.510000 0.797627
   vertex 0.189798 0.510000 0.790935
  endloop
 endfacet
 facet normal 0.000000 -1.000000 0.000000
  outer loop
   vertex 0.208013 0.510000 0.802986
   vertex 0.175827 0.510000 0.774148
   vertex 0.170821 0.510000 0.764410
  endloop
 endfacet
 facet normal 0.000000 -1.000000 0.000000
  outer loop
   vertex 0.208013 0.510000 0.802986
   vertex 0.165297 0.510000 0.743280
   vertex 0.164897 0.510000 0.732338
  endloop
 endfacet
 facet normal 0.000000 -1.000000 0.000000
  outer loop
   vertex 0.203141 0.510000 0.669674
   vertex 0.239847 0.510000 0.810077
   vertex 0.194009 0.510000 0.675715
  endloop
 endfacet
 facet normal 0.000000 -1.000000 0.000000
  outer loop
   vertex 0.297495 0.510000 0.783053
   vertex 0.256154 0.510000 0.661872
   vertex 0.266639 0.510000 0.665026
  endloop
 endfacet
 facet normal 0.000000 -1.000000 0.000000
  outer loop
   vertex 0.297495 0.510000 0.783053
   vertex 0.276553 0.510000 0.669674
   vertex 0.285685 0.510000 0.675715
  endloop
 endfacet
 facet normal 0.000000 -1.000000 0.000000
  outer loop
   vertex 0.306548 0.510000 0.700784
   vertex 0.297495 0.510000 0.783053
   vertex 0.300844 0.510000 0.691438
  endloop
 endfacet
 facet normal 0.000000 -1.000000 0.000000
  outer loop
   vertex 0.303866 0.510000 0.774148
   vertex 0.310830 0.510000 0.710861
   vertex 0.308873 0.510000 0.764410
  endloop
 endfacet
 facet normal 0.000000 -1.000000 0.000000
  outer loop
   vertex 0.234372 0.510000 0.660278
   vertex 0.289896 0.510000 0.790935
   vertex 0.281230 0.510000 0.797627
  endloop
 endfacet
 facet normal 0.000000 -1.000000 0.000000
  outer loop
   vertex 0.234372 0.510000 0.660278
   vertex 0.261454 0.510000 0.806898
   vertex 0.250767 0.510000 0.809278
  endloop
 endfacet
 facet normal 0.000000 -1.000000 0.000000
  outer loop
   vertex 0.164897 0.510000 0.732338
   vertex 0.228927 0.510000 0.809278
   vertex 0.218239 0.510000 0.806898
  endloop
 endfacet
 facet normal 0.000000 -1.000000 0.000000
  outer loop
   vertex 0.175827 0.510000 0.774148
   vertex 0.208013 0.510000 0.802986
   vertex 0.182198 0.510000 0.783053
  endloop
 endfacet
 facet normal 0.000000 -1.000000 0.000000
  outer loop
   vertex 0.165297 0.510000 0.743280
   vertex 0.208013 0.510000 0.802986
   vertex 0.167286 0.510000 0.754047
  endloop
 endfacet
 facet normal 0.000000 -1.000000 0.000000
  outer loop
   vertex 0.239847 0.510000 0.810077
   vertex 0.168864 0.510000 0.710861
   vertex 0.173146 0.510000 0.700784
  endloop
 endfacet
 facet normal 0.000000 -1.000000 0.000000
  outer loop
   vertex 0.185854 0.510000 0.683022
   vertex 0.239847 0.510000 0.810077
   vertex 0.178850 0.510000 0.691438
  endloop
 endfacet
 facet normal 0.000000 -1.000000 0.000000
  outer loop
   vertex 0.239847 0.510000 0.810077
   vertex 0.223540 0.510000 0.661872
   vertex 0.234372 0.510000 0.660278
  endloop
 endfacet
 facet normal 0.000000 -1.000000 0.000000
  outer loop
   vertex 0.276553 0.510000 0.669674
   vertex 0.297495 0.510000 0.783053
   vertex 0.266639 0.510000 0.665026
  endloop
 endfacet
 facet normal 0.000000 -1.000000 0.000000
  outer loop
   vertex 0.313599 0.510000 0.721455
   vertex 0.308873 0.510000 0.764410
   vertex 0.310830 0.510000 0.710861
  endloop
 endfacet
 facet normal 0.000000 -1.000000 0.000000
  outer loop
   vertex 0.271681 0.510000 0.802986
   vertex 0.234372 0.510000 0.660278
   vertex 0.281230 0.510000 0.797627
  endloop
 endfacet
 facet normal 0.000000 -1.000000 0.000000
  outer loop
   vertex 0.164897 0.510000 0.732338
   vertex 0.218239 0.510000 0.806898
   vertex 0.208013 0.510000 0.802986
  endloop
 endfacet
 facet normal 0.000000 -1.000000 0.000000
  outer loop
   vertex 0.167286 0.510000 0.754047
   vertex 0.208013 0.510000 0.802986
   vertex 0.170821 0.510000 0.764410
  endloop
 endfacet
 facet normal 0.000000 -1.000000 0.000000
  outer loop
   vertex 0.168864 0.510000 0.710861
   vertex 0.239847 0.510000 0.810077
   vertex 0.166094 0.510000 0.721455
  endloop
 endfacet
 facet normal 0.000000 -1.000000 0.000000
  outer loop
   vertex 0.223540 0.510000 0.661872
   vertex 0.239847 0.510000 0.810077
   vertex 0.213055 0.510000 0.665026
  endloop
 endfacet
 facet normal 0.000000 -1.000000 0.000000
  outer loop
   vertex 0.293840 0.510000 0.683022
   vertex 0.297495 0.510000 0.783053
   vertex 0.285685 0.510000 0.675715
  endloop
 endfacet
 facet normal 0.000000 -1.000000 0.000000
  outer loop
   vertex 0.234372 0.510000 0.660278
   vertex 0.250767 0.510000 0.809278
   vertex 0.239847 0.510000 0.810077
  endloop
 endfacet
 facet normal 0.000000 -0.000052 0.000000
  outer loop
   vertex 0.198464 0.510000 0.797627
   vertex 0.182198 0.510000 0.783053
   vertex 0.208013 0.510000 0.802986
  endloop
 endfacet
 facet normal 0.000000 -1.000000 0.000000
  outer loop
   vertex 0.178850 0.510000 0.691438
   vertex 0.239847 0.510000 0.810077
   vertex 0.173146 0.510000 0.700784
  endloop
 endfacet
 facet normal 0.000000 -1.000000 0.000000
  outer loop
   vertex 0.289896 0.510000 0.790935
   vertex 0.234372 0.510000 0.660278
   vertex 0.297495 0.510000 0.783053
  endloop
 endfacet
 facet normal 0.000000 -1.000000 0.000000
  outer loop
   vertex 0.166094 0.510000 0.721455
   vertex 0.239847 0.510000 0.810077
   vertex 0.164897 0.510000 0.732338
  endloop
 endfacet
 facet normal 0.000000 -1.000000 0.000000
  outer loop
   vertex 0.228927 0.510000 0.809278
   vertex 0.164897 0.510000 0.732338
   vertex 0.239847 0.510000 0.810077
  endloop
 endfacet
 facet normal 0.000000 -1.000000 0.000000
  outer loop
   vertex 0.245322 0.510000 0.660278
   vertex 0.297495 0.510000 0.783053
   vertex 0.234372 0.510000 0.660278
  endloop
 endfacet
endsolid inlet1
